# xmcd
# Copyright (C) 1995-1998 Ti Kan
#
# Track frame offsets:
#       150
#       17327
#       35453
#       49599
#
# Disc length: 877 seconds
#
# Revision: 0
# Processed by: cddbd v1.5.2PL0 Copyright (c) Steve Scherf et al.
# Submitted via: CD-Transfer v1.0
#
DISCID=22036b04
DTITLE=Haha - 
DYEAR=1900
DGENRE=
TTITLE0=Wer Ist Dieser Dj (09)
TTITLE1=So Wie Im Film (09)
TTITLE2=Ich Bau Dir Ein Schloﬂ (09)
TTITLE3=Du, Du
EXTD=
EXTT0=
EXTT1=
EXTT2=
EXTT3=
PLAYORDER=
